<?xml version="1.0" encoding="utf-8"?>
<!-- Generator: Adobe Illustrator 18.0.0, SVG Export Plug-In . SVG Version: 6.00 Build 0)  -->
<!DOCTYPE svg PUBLIC "-//W3C//DTD SVG 1.1//EN" "http://www.w3.org/Graphics/SVG/1.1/DTD/svg11.dtd">
<svg version="1.1" id="Layer_1" xmlns:sketch="http://www.bohemiancoding.com/sketch/ns"
	 xmlns="http://www.w3.org/2000/svg" xmlns:xlink="http://www.w3.org/1999/xlink" x="0px" y="0px" width="32px" height="32px"
	 viewBox="0 0 32 32" enable-background="new 0 0 32 32" xml:space="preserve">
<path id="Shape" sketch:type="MSShapeGroup" fill="black" d="M31.7,4.8L19.4,17c-0.6,0.6-1.4,1-2.2,1c-0.5,0-1-0.1-1.4-0.3l-1,1
	c-0.2,0.2-0.5,0.3-0.7,0.3c-0.3,0-0.5-0.1-0.7-0.3c-0.4-0.4-0.4-1,0-1.4l1-1c-0.2-0.4-0.3-0.9-0.3-1.4c0-0.8,0.3-1.6,0.9-2.2l0,0
	L27.3,0.3c0.4-0.4,1-0.4,1.4,0l3,3C31.9,3.5,32,3.8,32,4.1C32,4.3,31.9,4.6,31.7,4.8L31.7,4.8z M28,2.5L16.4,14
	c-0.2,0.2-0.3,0.5-0.3,0.8s0.1,0.6,0.3,0.8l0,0c0.4,0.4,1.2,0.4,1.6,0l0,0L29.6,4.1L28,2.5L28,2.5z M18.1,4H5C3.4,4,2,5.4,2,7v19.9
	C2,28.6,3.4,30,5,30h20c1.7,0,3-1.4,3-3.1V13.8c0-0.6,0.5-1,1-1c0.6,0,1,0.4,1,1V27c0,2.8-2.3,5-5,5H5c-2.8,0-5-2.2-5-5V7
	c0-2.8,2.3-5,5-5h13.1c0.6,0,1,0.4,1,1S18.7,4,18.1,4L18.1,4z"/>
</svg>
